<svg width="357" height="84" fill="none" xmlns="http://www.w3.org/2000/svg"><rect width="357" height="84" rx="12" fill="#fff"/><rect x="12" y="12" width="60" height="60" rx="12" fill="#F0FDF4"/><path fill-rule="evenodd" clip-rule="evenodd" d="M29.742 36.667c-.377 0-.566 0-.712-.077a.681.681 0 0 1-.292-.305c-.07-.15-.063-.33-.047-.692.04-.924.143-1.55.411-2.076a4 4 0 0 1 1.748-1.748c.856-.436 1.976-.436 4.216-.436h13.867c2.24 0 3.36 0 4.216.436a4 4 0 0 1 1.748 1.748c.268.526.37 1.152.41 2.076.016.362.024.543-.046.692a.681.681 0 0 1-.293.305c-.145.077-.334.077-.712.077H29.742ZM28.666 40.4c0-.373 0-.56.073-.703a.667.667 0 0 1 .291-.291c.143-.073.33-.073.703-.073h24.533c.373 0 .56 0 .703.073a.667.667 0 0 1 .291.291c.073.143.073.33.073.703v5.867c0 2.24 0 3.36-.436 4.216a4 4 0 0 1-1.748 1.748c-.856.436-1.976.436-4.216.436H35.066c-2.24 0-3.36 0-4.216-.436a4 4 0 0 1-1.748-1.748c-.436-.856-.436-1.976-.436-4.216V40.4Zm6.667 4.267a1.333 1.333 0 1 0 0 2.666h5.333a1.333 1.333 0 1 0 0-2.666h-5.333Z" fill="#4ADE80"/><path d="M287.678 31.168v1.482h-4.584v-1.482h4.584ZM289.196 37v-1.332l3.535-3.466c.338-.341.619-.644.845-.91a3.36 3.36 0 0 0 .507-.77 1.9 1.9 0 0 0 .169-.795c0-.322-.073-.597-.219-.826a1.456 1.456 0 0 0-.601-.537 1.946 1.946 0 0 0-.87-.189c-.335 0-.628.07-.88.21-.252.135-.448.329-.587.58a1.868 1.868 0 0 0-.204.9h-1.755c0-.645.148-1.207.443-1.685a2.987 2.987 0 0 1 1.218-1.108c.52-.262 1.117-.393 1.789-.393.683 0 1.283.128 1.8.383.517.255.918.605 1.203 1.049.289.444.433.951.433 1.521 0 .381-.073.756-.219 1.124-.146.368-.403.775-.771 1.223-.364.447-.876.989-1.536 1.625l-1.755 1.785v.07h4.435V37h-6.98Zm12.459.194c-.819 0-1.522-.207-2.108-.622-.584-.417-1.033-1.019-1.348-1.804-.311-.79-.467-1.739-.467-2.849.003-1.11.161-2.055.472-2.834.315-.782.764-1.379 1.348-1.79.586-.41 1.287-.616 2.103-.616.815 0 1.516.206 2.103.617.586.41 1.035 1.007 1.347 1.79.315.781.472 1.726.472 2.833 0 1.114-.157 2.065-.472 2.854-.312.785-.761 1.385-1.347 1.8-.584.414-1.285.62-2.103.62Zm0-1.556c.636 0 1.138-.313 1.506-.94.371-.63.557-1.556.557-2.779 0-.809-.085-1.488-.254-2.038-.169-.55-.407-.965-.716-1.243a1.565 1.565 0 0 0-1.093-.423c-.633 0-1.134.315-1.502.945-.368.626-.553 1.546-.557 2.759-.003.812.078 1.495.244 2.048.169.554.408.971.716 1.253.308.279.674.418 1.099.418Zm9.338 1.556c-.819 0-1.522-.207-2.108-.622-.584-.417-1.033-1.019-1.348-1.804-.311-.79-.467-1.739-.467-2.849.003-1.11.161-2.055.472-2.834.315-.782.764-1.379 1.348-1.79.586-.41 1.287-.616 2.103-.616.815 0 1.516.206 2.103.617.586.41 1.035 1.007 1.347 1.79.315.781.472 1.726.472 2.833 0 1.114-.157 2.065-.472 2.854-.312.785-.761 1.385-1.347 1.8-.584.414-1.285.62-2.103.62Zm0-1.556c.636 0 1.138-.313 1.506-.94.371-.63.557-1.556.557-2.779 0-.809-.085-1.488-.254-2.038-.169-.55-.407-.965-.716-1.243a1.567 1.567 0 0 0-1.093-.423c-.634 0-1.134.315-1.502.945-.368.626-.553 1.546-.557 2.759-.003.812.078 1.495.244 2.048.169.554.408.971.716 1.253.308.279.674.418 1.099.418Zm9.337 1.556c-.818 0-1.521-.207-2.108-.622-.583-.417-1.032-1.019-1.347-1.804-.311-.79-.467-1.739-.467-2.849.003-1.11.161-2.055.472-2.834.315-.782.764-1.379 1.347-1.79.587-.41 1.288-.616 2.103-.616.816 0 1.517.206 2.103.617.587.41 1.036 1.007 1.348 1.79.315.781.472 1.726.472 2.833 0 1.114-.157 2.065-.472 2.854-.312.785-.761 1.385-1.348 1.8-.583.414-1.284.62-2.103.62Zm0-1.556c.637 0 1.139-.313 1.507-.94.371-.63.557-1.556.557-2.779 0-.809-.085-1.488-.254-2.038-.169-.55-.408-.965-.716-1.243a1.568 1.568 0 0 0-1.094-.423c-.633 0-1.133.315-1.501.945-.368.626-.553 1.546-.557 2.759-.003.812.078 1.495.244 2.048.169.554.407.971.716 1.253.308.279.674.418 1.098.418Z" fill="#0F172A"/><path fill-rule="evenodd" clip-rule="evenodd" d="M330.603 30.95a2.34 2.34 0 0 1 .659-1.764l1.451-1.488c.292-.299.637-.53 1.013-.682.251-.14.535-.216.827-.216h4.894c.291 0 .575.075.826.216a2.98 2.98 0 0 1 1.013.682l1.452 1.488c.472.484.692 1.13.658 1.764a2.344 2.344 0 0 1-.658 1.765l-3.501 3.587c-.615.63-1.432.93-2.237.895a2.943 2.943 0 0 1-2.238-.895l-3.5-3.587a2.34 2.34 0 0 1-.659-1.765Zm3.95-2.605h4.618c.394 0 .771.16 1.049.445l1.452 1.488a.787.787 0 0 1 0 1.092.741.741 0 0 1-1.066 0l-1.01-1.035a1.464 1.464 0 0 0-1.049-.446h-1.181c-.124 0-.186.154-.098.244l1.756 1.8c.58.594.58 1.557 0 2.151l-1.098 1.126a1.459 1.459 0 0 1-2.099 0l-3.5-3.588a.786.786 0 0 1 0-1.092.74.74 0 0 1 1.066 0l2.951 3.025a.74.74 0 0 0 1.065 0 .785.785 0 0 0 0-1.093l-3.016-3.091a.69.69 0 0 1 .001-.958.22.22 0 0 1 .159-.068Z" fill="#4B4DED"/><path d="M84.308 16.818h2.083l2.491 4.504h.1l2.49-4.504h2.083l-3.703 6.384V27h-1.84v-3.798l-3.704-6.384ZM96.691 27.15c-.746 0-1.392-.164-1.939-.492a3.342 3.342 0 0 1-1.272-1.377c-.299-.59-.448-1.28-.448-2.068 0-.79.15-1.48.448-2.073a3.335 3.335 0 0 1 1.272-1.383c.547-.328 1.194-.492 1.94-.492.745 0 1.391.164 1.938.492.547.328.97.79 1.268 1.383.302.593.452 1.284.452 2.073 0 .788-.15 1.478-.452 2.068a3.31 3.31 0 0 1-1.268 1.377c-.547.328-1.193.492-1.939.492Zm.01-1.442c.405 0 .743-.11 1.014-.333.272-.225.474-.527.607-.904a3.71 3.71 0 0 0 .204-1.263c0-.468-.068-.89-.204-1.268a2.007 2.007 0 0 0-.607-.91c-.271-.225-.61-.338-1.014-.338-.414 0-.759.113-1.034.338a2.041 2.041 0 0 0-.611.91 3.81 3.81 0 0 0-.2 1.268c0 .464.067.885.2 1.262.136.378.34.68.611.905.275.222.62.333 1.034.333Zm10.044-1.919v-4.424h1.8V27H106.8v-1.357h-.08a2.297 2.297 0 0 1-.85 1.049c-.391.271-.873.407-1.447.407-.5 0-.943-.11-1.327-.333a2.313 2.313 0 0 1-.895-.98c-.215-.43-.323-.95-.323-1.56v-4.862h1.8v4.583c0 .484.132.869.397 1.154.265.285.613.427 1.044.427.265 0 .522-.064.771-.194.248-.129.452-.321.611-.576.163-.259.244-.582.244-.97ZM115.444 27l-2.158-7.636h1.835l1.342 5.369h.07l1.372-5.37h1.815l1.372 5.34h.074l1.323-5.34h1.839L122.166 27h-1.875l-1.431-5.16h-.105L117.323 27h-1.879Zm10.141 0v-7.636h1.8V27h-1.8Zm.905-8.72a1.05 1.05 0 0 1-.736-.284.911.911 0 0 1-.308-.69c0-.272.102-.503.308-.692a1.04 1.04 0 0 1 .736-.288c.288 0 .533.096.735.288.206.19.309.42.309.691a.912.912 0 0 1-.309.691 1.037 1.037 0 0 1-.735.284Zm6.558 1.084v1.392h-4.389v-1.392h4.389Zm-3.306-1.83h1.8v7.17c0 .241.037.427.109.556a.593.593 0 0 0 .299.258c.122.047.258.07.407.07.113 0 .216-.008.309-.025.096-.016.169-.031.218-.044l.304 1.406a4.01 4.01 0 0 1-.413.11c-.176.04-.391.063-.646.07a2.933 2.933 0 0 1-1.218-.204 1.89 1.89 0 0 1-.86-.706c-.209-.319-.312-.716-.309-1.194v-7.467Zm6.775 4.992V27h-1.799V16.818h1.76v3.843h.089c.179-.43.456-.77.83-1.019.378-.252.859-.378 1.442-.378.53 0 .993.111 1.387.333.395.222.7.547.915.975.219.427.328.95.328 1.566V27h-1.8v-4.584c0-.514-.132-.913-.397-1.198-.262-.288-.63-.433-1.104-.433-.318 0-.603.07-.855.21a1.463 1.463 0 0 0-.587.59c-.139.26-.209.573-.209.94Zm9.62 4.608a2.89 2.89 0 0 1-1.61-.462c-.474-.308-.849-.756-1.124-1.343-.275-.586-.413-1.299-.413-2.137 0-.849.14-1.565.418-2.148.282-.587.661-1.03 1.139-1.327a2.924 2.924 0 0 1 1.595-.453c.448 0 .816.076 1.104.229.288.149.517.33.686.542.169.209.3.406.393.591h.075v-3.808h1.804V27h-1.77v-1.203h-.109a3.071 3.071 0 0 1-.403.591 2.2 2.2 0 0 1-.696.527c-.288.146-.651.22-1.089.22Zm.503-1.476c.381 0 .706-.103.974-.309.268-.208.472-.498.611-.87.14-.37.209-.803.209-1.297 0-.494-.069-.923-.209-1.288a1.83 1.83 0 0 0-.606-.85c-.265-.202-.592-.303-.979-.303-.401 0-.736.104-1.005.313a1.9 1.9 0 0 0-.606.865 3.628 3.628 0 0 0-.204 1.263c0 .477.068.903.204 1.277.139.372.343.665.611.88.272.213.605.319 1 .319ZM152.122 27v-7.636h1.745v1.272h.08c.139-.44.377-.78.715-1.019a1.972 1.972 0 0 1 1.169-.363c.099 0 .21.005.333.015.126.007.23.018.313.035v1.655a1.888 1.888 0 0 0-.363-.07 3.336 3.336 0 0 0-.472-.034c-.328 0-.623.071-.885.214a1.568 1.568 0 0 0-.835 1.442V27h-1.8Zm8.617.15c-.766 0-1.427-.16-1.984-.478a3.232 3.232 0 0 1-1.277-1.362c-.299-.59-.448-1.285-.448-2.083 0-.786.149-1.475.448-2.069a3.38 3.38 0 0 1 1.262-1.392c.541-.334 1.175-.502 1.905-.502.47 0 .914.076 1.332.229.421.149.792.381 1.114.696.324.315.58.716.765 1.203.186.484.279 1.06.279 1.73v.552h-6.26v-1.213h4.534a1.93 1.93 0 0 0-.223-.92 1.627 1.627 0 0 0-.612-.641 1.717 1.717 0 0 0-.905-.234c-.368 0-.691.09-.969.269a1.845 1.845 0 0 0-.651.696 1.993 1.993 0 0 0-.234.94v1.058c0 .444.081.825.244 1.144.162.315.389.556.681.726.291.165.633.248 1.024.248.262 0 .499-.036.711-.11.212-.075.396-.186.552-.332.155-.146.273-.327.353-.542l1.68.189a2.613 2.613 0 0 1-.607 1.163 2.953 2.953 0 0 1-1.133.766c-.461.179-.988.268-1.581.268Zm6.453-.15-2.158-7.636h1.835l1.342 5.369h.07l1.372-5.37h1.815l1.372 5.34h.074l1.323-5.34h1.839L173.914 27h-1.875l-1.431-5.16h-.105L169.071 27h-1.879Zm13.594 0v-1.332l3.534-3.466c.339-.341.62-.644.846-.91a3.36 3.36 0 0 0 .507-.77c.112-.249.169-.514.169-.795 0-.322-.073-.597-.219-.826a1.452 1.452 0 0 0-.602-.537 1.94 1.94 0 0 0-.87-.189c-.334 0-.628.07-.88.21a1.44 1.44 0 0 0-.586.58 1.868 1.868 0 0 0-.204.9h-1.755c0-.645.148-1.207.443-1.685.294-.477.7-.846 1.218-1.108.52-.262 1.116-.393 1.789-.393.683 0 1.283.128 1.8.383.517.255.918.605 1.203 1.049.289.444.433.951.433 1.521 0 .381-.073.756-.219 1.124-.146.368-.403.775-.771 1.223-.364.447-.876.989-1.536 1.625l-1.755 1.785v.07h4.435V27h-6.98Zm12.458.194c-.818 0-1.521-.207-2.107-.622-.584-.417-1.033-1.019-1.348-1.804-.311-.79-.467-1.739-.467-2.849.003-1.11.161-2.055.472-2.834.315-.782.764-1.379 1.348-1.79.586-.41 1.287-.616 2.102-.616.816 0 1.517.206 2.103.617.587.41 1.036 1.007 1.348 1.79.315.781.472 1.726.472 2.833 0 1.114-.157 2.065-.472 2.854-.312.785-.761 1.385-1.348 1.8-.583.414-1.284.62-2.103.62Zm0-1.556c.637 0 1.139-.313 1.507-.94.371-.63.557-1.556.557-2.779 0-.809-.085-1.488-.254-2.038-.169-.55-.408-.965-.716-1.243a1.568 1.568 0 0 0-1.094-.423c-.633 0-1.133.315-1.501.945-.368.626-.553 1.546-.557 2.759-.003.812.078 1.495.244 2.048.169.554.408.971.716 1.253.308.279.674.418 1.098.418Zm9.338 1.556c-.818 0-1.521-.207-2.108-.622-.583-.417-1.032-1.019-1.347-1.804-.311-.79-.467-1.739-.467-2.849.003-1.11.161-2.055.472-2.834.315-.782.764-1.379 1.347-1.79.587-.41 1.288-.616 2.103-.616.816 0 1.517.206 2.103.617.587.41 1.036 1.007 1.348 1.79.315.781.472 1.726.472 2.833 0 1.114-.157 2.065-.472 2.854-.312.785-.761 1.385-1.348 1.8-.583.414-1.284.62-2.103.62Zm0-1.556c.637 0 1.139-.313 1.507-.94.371-.63.557-1.556.557-2.779 0-.809-.085-1.488-.254-2.038-.169-.55-.408-.965-.716-1.243a1.568 1.568 0 0 0-1.094-.423c-.633 0-1.133.315-1.501.945-.368.626-.554 1.546-.557 2.759-.003.812.078 1.495.244 2.048.169.554.407.971.716 1.253.308.279.674.418 1.098.418Zm9.338 1.556c-.818 0-1.521-.207-2.108-.622-.583-.417-1.032-1.019-1.347-1.804-.312-.79-.467-1.739-.467-2.849.003-1.11.16-2.055.472-2.834.315-.782.764-1.379 1.347-1.79.587-.41 1.288-.616 2.103-.616.816 0 1.517.206 2.103.617.587.41 1.036 1.007 1.348 1.79.314.781.472 1.726.472 2.833 0 1.114-.158 2.065-.472 2.854-.312.785-.761 1.385-1.348 1.8-.583.414-1.284.62-2.103.62Zm0-1.556c.637 0 1.139-.313 1.507-.94.371-.63.556-1.556.556-2.779 0-.809-.084-1.488-.253-2.038-.169-.55-.408-.965-.716-1.243a1.568 1.568 0 0 0-1.094-.423c-.633 0-1.133.315-1.501.945-.368.626-.554 1.546-.557 2.759-.003.812.078 1.495.244 2.048.169.554.407.971.716 1.253.308.279.674.418 1.098.418Zm14.68-6.02a1.355 1.355 0 0 0-.587-1.015c-.341-.242-.785-.363-1.332-.363-.384 0-.714.058-.989.174a1.468 1.468 0 0 0-.632.472c-.145.2-.22.426-.223.681 0 .213.048.396.144.552.099.156.233.289.403.398.169.106.356.196.561.268.206.073.413.135.622.184l.954.24c.385.089.754.21 1.109.362.358.152.678.345.959.577.286.232.511.512.677.84.165.328.248.713.248 1.153 0 .597-.152 1.122-.457 1.576-.305.451-.746.804-1.323 1.06-.573.251-1.267.377-2.083.377-.792 0-1.48-.122-2.063-.368-.58-.245-1.034-.603-1.362-1.074-.325-.47-.501-1.044-.527-1.72h1.814c.027.355.136.65.329.885.192.236.442.411.75.527.312.116.66.174 1.044.174.401 0 .753-.06 1.054-.179.305-.123.544-.291.716-.507.173-.219.26-.474.264-.766a.974.974 0 0 0-.234-.656 1.707 1.707 0 0 0-.641-.437 6.181 6.181 0 0 0-.955-.319l-1.158-.298c-.839-.215-1.502-.542-1.989-.98-.484-.44-.726-1.025-.726-1.754 0-.6.163-1.125.488-1.576.328-.45.773-.8 1.337-1.05.563-.251 1.201-.377 1.914-.377.723 0 1.356.126 1.899.378.547.248.976.595 1.288 1.039.311.44.472.948.482 1.521H226.6Zm5.279-2.8V27h-1.8V16.818h1.8ZM233.729 27v-7.636h1.8V27h-1.8Zm.905-8.72a1.05 1.05 0 0 1-.736-.284.915.915 0 0 1-.308-.69c0-.272.103-.503.308-.692.206-.192.451-.288.736-.288.289 0 .534.096.736.288.206.19.308.42.308.691a.911.911 0 0 1-.308.691 1.037 1.037 0 0 1-.736.284Zm6.077 8.87c-.763 0-1.417-.168-1.964-.503a3.35 3.35 0 0 1-1.258-1.387c-.291-.593-.437-1.276-.437-2.048 0-.776.149-1.46.447-2.054a3.336 3.336 0 0 1 1.263-1.392c.547-.334 1.193-.502 1.939-.502.62 0 1.168.115 1.645.343a2.81 2.81 0 0 1 1.149.96c.285.41.447.891.487 1.442h-1.72a1.645 1.645 0 0 0-.497-.92c-.259-.249-.605-.373-1.039-.373-.368 0-.691.1-.97.298-.278.196-.495.477-.651.845-.153.368-.229.81-.229 1.323 0 .52.076.968.229 1.342.152.371.366.658.641.86.279.2.605.299.98.299.265 0 .502-.05.711-.15.212-.102.389-.25.532-.442.142-.192.24-.426.293-.701h1.72a2.999 2.999 0 0 1-.477 1.437c-.275.414-.65.739-1.124.974-.474.232-1.031.348-1.67.348Zm8.13 0c-.766 0-1.427-.16-1.984-.478a3.228 3.228 0 0 1-1.278-1.362c-.298-.59-.447-1.285-.447-2.083 0-.786.149-1.475.447-2.069a3.389 3.389 0 0 1 1.263-1.392c.54-.334 1.175-.502 1.904-.502.471 0 .915.076 1.332.229.421.149.793.381 1.114.696.325.315.58.716.766 1.203.185.484.278 1.06.278 1.73v.552h-6.259v-1.213h4.534a1.93 1.93 0 0 0-.224-.92 1.625 1.625 0 0 0-.611-.641 1.72 1.72 0 0 0-.905-.234c-.368 0-.691.09-.97.269a1.853 1.853 0 0 0-.651.696c-.152.285-.23.598-.233.94v1.058c0 .444.081.825.243 1.144.163.315.39.556.681.726.292.165.633.248 1.024.248.262 0 .499-.036.711-.11.212-.075.396-.186.552-.332.156-.146.274-.327.353-.542l1.681.189a2.623 2.623 0 0 1-.607 1.163 2.961 2.961 0 0 1-1.133.766c-.461.179-.988.268-1.581.268Zm10.953-5.768-1.64.18a1.329 1.329 0 0 0-.244-.468 1.212 1.212 0 0 0-.457-.353 1.67 1.67 0 0 0-.706-.134c-.375 0-.69.08-.945.243-.252.162-.376.373-.373.631a.661.661 0 0 0 .244.542c.169.14.447.254.835.343l1.303.279c.722.156 1.259.403 1.61.74.355.339.534.781.537 1.328-.003.48-.144.905-.422 1.273-.275.364-.658.65-1.149.855-.49.205-1.054.308-1.69.308-.935 0-1.687-.195-2.257-.587-.57-.394-.91-.942-1.019-1.645l1.755-.17c.079.346.248.606.507.781.258.176.595.264 1.009.264.427 0 .771-.088 1.029-.264.262-.175.393-.392.393-.65 0-.22-.085-.4-.254-.543-.165-.142-.424-.252-.775-.328l-1.303-.273c-.732-.153-1.274-.41-1.626-.77-.351-.365-.525-.826-.522-1.383-.003-.47.125-.878.383-1.223.262-.348.625-.617 1.089-.805.467-.193 1.006-.289 1.616-.289.895 0 1.599.19 2.113.572.517.381.837.897.959 1.546Z" fill="#0F172A"/><path d="M85.696 47h-1.398l3.14-8.727h1.522L92.1 47h-1.397l-2.467-7.142h-.068L85.696 47Zm.234-3.418h4.534v1.108H85.93v-1.108ZM93.26 47v-6.545h1.223v1.065h.08c.137-.36.36-.642.67-.844.31-.204.68-.307 1.112-.307.438 0 .804.103 1.1.307.298.205.518.486.66.844h.068c.157-.35.405-.628.746-.835.34-.21.747-.316 1.219-.316.593 0 1.078.186 1.453.559.378.372.567.933.567 1.683V47h-1.275v-4.27c0-.443-.12-.764-.362-.963a1.316 1.316 0 0 0-.865-.298c-.415 0-.737.128-.967.383-.23.253-.345.578-.345.976V47h-1.27v-4.35c0-.356-.111-.642-.333-.857-.221-.216-.51-.324-.865-.324-.241 0-.464.064-.669.191-.201.126-.365.3-.49.525a1.605 1.605 0 0 0-.183.78V47h-1.274Zm12.51.145c-.415 0-.79-.077-1.125-.23a1.897 1.897 0 0 1-.797-.678c-.193-.295-.289-.657-.289-1.086 0-.37.071-.674.213-.912.142-.239.333-.428.575-.567.241-.14.511-.244.81-.316.298-.07.602-.125.911-.161l.955-.111c.244-.031.422-.081.533-.15.11-.067.166-.178.166-.332v-.03c0-.372-.105-.66-.315-.865-.208-.204-.518-.306-.929-.306-.429 0-.767.095-1.015.285a1.532 1.532 0 0 0-.507.627l-1.197-.273a2.3 2.3 0 0 1 .622-.963c.276-.247.592-.426.95-.537.358-.114.735-.17 1.13-.17.261 0 .538.03.83.093.296.06.572.17.827.332.259.162.47.394.635.695.165.298.247.686.247 1.163V47h-1.244v-.895h-.051a1.822 1.822 0 0 1-.371.486c-.165.159-.376.291-.635.396a2.46 2.46 0 0 1-.929.158Zm.277-1.023c.352 0 .654-.07.904-.209a1.47 1.47 0 0 0 .575-.545c.133-.227.2-.47.2-.729v-.844c-.045.046-.133.088-.264.128-.128.037-.274.07-.439.098l-.482.073-.392.05a3.143 3.143 0 0 0-.677.159 1.16 1.16 0 0 0-.486.32c-.119.136-.179.317-.179.545 0 .315.117.554.35.715.232.16.529.24.89.24Zm4.514.878v-.874l3.545-4.504v-.06h-3.43v-1.107h5.02v.928l-3.409 4.45v.059h3.528V47h-5.254Zm9.327.132c-.614 0-1.149-.14-1.606-.422a2.843 2.843 0 0 1-1.066-1.18c-.253-.506-.379-1.097-.379-1.773 0-.679.126-1.273.379-1.781a2.837 2.837 0 0 1 1.066-1.185c.457-.281.992-.422 1.606-.422.614 0 1.149.14 1.607.422.457.281.812.676 1.065 1.185.253.508.379 1.102.379 1.781 0 .676-.126 1.267-.379 1.773-.253.505-.608.899-1.065 1.18-.458.282-.993.422-1.607.422Zm.004-1.07c.398 0 .728-.105.989-.315.261-.21.455-.49.58-.84a3.36 3.36 0 0 0 .191-1.154c0-.418-.064-.801-.191-1.15a1.877 1.877 0 0 0-.58-.849c-.261-.213-.591-.32-.989-.32-.4 0-.733.107-.997.32a1.908 1.908 0 0 0-.584.848c-.125.35-.187.733-.187 1.15 0 .421.062.806.187 1.156.128.35.323.629.584.84.264.21.597.315.997.315Zm5.744-2.948V47h-1.275v-6.545h1.223v1.065h.081c.151-.347.387-.625.708-.835.324-.21.731-.316 1.223-.316.446 0 .836.094 1.172.282.335.184.595.46.78.826.184.367.277.82.277 1.36V47h-1.275v-4.01c0-.474-.123-.845-.37-1.112-.248-.27-.587-.405-1.019-.405-.295 0-.558.064-.788.192a1.377 1.377 0 0 0-.541.562c-.131.245-.196.54-.196.887Zm15.082-2.084a2.692 2.692 0 0 0-.333-.695 2.105 2.105 0 0 0-1.142-.865 2.62 2.62 0 0 0-.797-.115c-.491 0-.934.127-1.329.38-.395.252-.708.623-.938 1.112-.227.485-.341 1.08-.341 1.785 0 .708.115 1.306.346 1.794.23.489.545.86.946 1.112.4.253.856.38 1.367.38.475 0 .888-.097 1.241-.29.355-.193.629-.466.822-.818.196-.355.294-.773.294-1.253l.341.064h-2.497v-1.087h3.43v.993c0 .733-.156 1.37-.469 1.91a3.184 3.184 0 0 1-1.287 1.243c-.545.293-1.17.44-1.875.44-.789 0-1.483-.182-2.079-.546-.594-.364-1.057-.88-1.389-1.547-.333-.67-.499-1.466-.499-2.386 0-.696.097-1.321.29-1.875a4.06 4.06 0 0 1 .814-1.41c.352-.39.765-.687 1.24-.892a3.879 3.879 0 0 1 1.564-.31c.471 0 .91.069 1.317.208.409.14.772.337 1.09.593a3.35 3.35 0 0 1 1.223 2.075h-1.35Zm3.39 5.97v-6.545h1.274V47h-1.274Zm.643-7.555a.81.81 0 0 1-.571-.222.721.721 0 0 1-.234-.537c0-.21.078-.39.234-.537a.801.801 0 0 1 .571-.226c.222 0 .411.076.567.226a.706.706 0 0 1 .238.537.714.714 0 0 1-.238.537.795.795 0 0 1-.567.222Zm5.46 1.01v1.022h-3.699v-1.022h3.699ZM147.525 47v-7.304c0-.41.09-.749.269-1.018.179-.273.416-.476.711-.61.296-.136.617-.204.963-.204.256 0 .475.02.657.064.181.04.316.076.404.11l-.298 1.032a5.847 5.847 0 0 0-.23-.06 1.314 1.314 0 0 0-.341-.038c-.31 0-.531.076-.665.23-.13.153-.196.375-.196.665V47h-1.274Zm7.055-6.545v1.022h-3.575v-1.022h3.575Zm-2.617-1.569h1.275v6.192c0 .247.037.433.11.558a.578.578 0 0 0 .286.252c.119.042.248.064.388.064.102 0 .191-.007.268-.022l.179-.034.23 1.053a2.494 2.494 0 0 1-.826.136 2.244 2.244 0 0 1-.938-.179 1.606 1.606 0 0 1-.703-.58c-.179-.26-.269-.589-.269-.984v-6.456Zm11.377 2.225h-1.329a2.034 2.034 0 0 0-.797-1.3 2.208 2.208 0 0 0-.678-.34 2.644 2.644 0 0 0-.788-.116c-.503 0-.953.127-1.351.38-.395.252-.707.623-.937 1.112-.228.488-.341 1.085-.341 1.79 0 .71.113 1.309.341 1.798.23.488.544.858.941 1.108.398.25.845.375 1.343.375.275 0 .537-.037.784-.111.25-.077.476-.19.677-.337a2.041 2.041 0 0 0 .806-1.283l1.329.005a3.572 3.572 0 0 1-.413 1.184 3.278 3.278 0 0 1-.78.93 3.523 3.523 0 0 1-1.082.6c-.407.142-.85.213-1.33.213-.756 0-1.429-.179-2.02-.537-.591-.36-1.057-.876-1.398-1.547-.338-.67-.507-1.47-.507-2.399 0-.931.171-1.731.512-2.399.341-.67.807-1.184 1.397-1.542.591-.361 1.263-.542 2.016-.542.463 0 .895.067 1.296.2.403.131.765.325 1.086.58.321.253.587.563.797.93.21.363.352.779.426 1.248Zm3.378 6.034c-.414 0-.789-.077-1.125-.23a1.894 1.894 0 0 1-.796-.678c-.194-.295-.29-.657-.29-1.086 0-.37.071-.674.213-.912.142-.239.334-.428.575-.567.242-.14.511-.244.81-.316.298-.07.602-.125.912-.161l.954-.111c.245-.031.422-.081.533-.15.111-.067.166-.178.166-.332v-.03c0-.372-.105-.66-.315-.865-.208-.204-.517-.306-.929-.306-.429 0-.767.095-1.014.285a1.527 1.527 0 0 0-.508.627l-1.197-.273a2.3 2.3 0 0 1 .622-.963c.276-.247.593-.426.95-.537.358-.114.735-.17 1.13-.17.261 0 .538.03.831.093.295.06.571.17.826.332.259.162.471.394.635.695.165.298.248.686.248 1.163V47h-1.245v-.895h-.051a1.801 1.801 0 0 1-.371.486c-.164.159-.376.291-.635.396a2.46 2.46 0 0 1-.929.158Zm.277-1.023c.353 0 .654-.07.904-.209.253-.139.444-.32.575-.545.134-.227.2-.47.2-.729v-.844c-.045.046-.133.088-.264.128-.128.037-.274.07-.439.098l-.481.073-.392.05a3.152 3.152 0 0 0-.678.159 1.16 1.16 0 0 0-.486.32c-.119.136-.179.317-.179.545 0 .315.117.554.35.715.233.16.53.24.89.24Zm4.651.878v-6.545h1.231v1.04h.068c.12-.353.33-.63.631-.832a1.805 1.805 0 0 1 1.031-.306 5.38 5.38 0 0 1 .541.03v1.218a2.297 2.297 0 0 0-.272-.047 2.623 2.623 0 0 0-.392-.03c-.301 0-.57.064-.806.192a1.429 1.429 0 0 0-.758 1.283V47h-1.274Zm6.821.128c-.528 0-1-.135-1.415-.405-.412-.273-.736-.66-.971-1.163-.233-.506-.35-1.113-.35-1.82 0-.707.118-1.312.354-1.815.239-.503.565-.888.98-1.155.415-.267.885-.4 1.41-.4.407 0 .733.068.981.204.25.133.443.29.579.469.139.179.247.336.324.473h.077v-3.243h1.274V47h-1.244v-1.019h-.107c-.077.14-.187.299-.332.478a1.847 1.847 0 0 1-.588.469c-.25.133-.574.2-.972.2Zm.281-1.087c.367 0 .676-.096.929-.29.256-.196.449-.467.58-.813.133-.347.2-.75.2-1.21 0-.455-.065-.853-.196-1.194a1.754 1.754 0 0 0-.575-.797c-.253-.19-.566-.285-.938-.285-.383 0-.703.1-.959.298a1.83 1.83 0 0 0-.579.814 3.316 3.316 0 0 0-.192 1.163c0 .438.065.831.196 1.18.131.35.324.627.58.832.258.201.576.302.954.302Z" fill="#6F747F"/><path d="M84.528 59.406v-1.133h6.755v1.133H88.56V67h-1.313v-7.594h-2.719Zm9.953 7.726c-.614 0-1.15-.14-1.607-.422a2.845 2.845 0 0 1-1.065-1.18c-.253-.506-.38-1.097-.38-1.773 0-.679.127-1.273.38-1.781a2.839 2.839 0 0 1 1.065-1.185c.458-.281.993-.422 1.607-.422s1.149.14 1.606.422c.458.281.813.676 1.066 1.185.252.508.379 1.102.379 1.781 0 .676-.126 1.267-.38 1.773-.252.505-.607.899-1.065 1.18-.457.282-.993.422-1.606.422Zm.004-1.07c.398 0 .727-.105.989-.315.261-.21.454-.49.58-.84a3.34 3.34 0 0 0 .191-1.154c0-.418-.064-.801-.192-1.15a1.874 1.874 0 0 0-.58-.849c-.26-.213-.59-.32-.988-.32-.4 0-.733.107-.997.32a1.905 1.905 0 0 0-.584.848c-.125.35-.187.733-.187 1.15 0 .421.062.806.187 1.156.128.35.323.629.584.84.264.21.597.314.997.314Zm6.919 1.066c-.528 0-1-.135-1.414-.405-.412-.273-.736-.66-.972-1.163-.233-.506-.35-1.113-.35-1.82 0-.707.119-1.312.354-1.815.239-.503.566-.888.98-1.155a2.55 2.55 0 0 1 1.411-.4c.406 0 .733.068.98.204.25.133.443.29.58.469.139.179.247.336.324.473h.076v-3.243h1.274V67h-1.244v-1.019h-.106c-.077.14-.188.299-.333.478a1.847 1.847 0 0 1-.588.469c-.25.133-.574.2-.972.2Zm.282-1.087c.366 0 .676-.096.929-.29.255-.196.449-.467.579-.814.134-.346.201-.75.201-1.21a3.34 3.34 0 0 0-.196-1.193 1.756 1.756 0 0 0-.576-.797c-.253-.19-.565-.285-.937-.285-.384 0-.703.1-.959.298-.256.199-.449.47-.58.814a3.34 3.34 0 0 0-.191 1.163c0 .438.065.831.196 1.18.13.35.323.627.579.832.259.201.577.302.955.302Zm6.685 1.104c-.415 0-.79-.077-1.125-.23a1.897 1.897 0 0 1-.797-.678c-.193-.295-.29-.657-.29-1.086 0-.37.071-.674.213-.912.142-.239.334-.428.575-.567a3.02 3.02 0 0 1 .81-.316c.298-.07.602-.125.912-.161l.955-.111c.244-.031.421-.081.532-.15.111-.067.166-.178.166-.332v-.03c0-.372-.105-.66-.315-.865-.207-.204-.517-.306-.929-.306-.429 0-.767.095-1.014.285a1.532 1.532 0 0 0-.507.627l-1.198-.273c.142-.398.35-.719.623-.963.275-.247.592-.426.95-.537.358-.114.734-.17 1.129-.17.261 0 .538.03.831.093.296.06.571.17.827.332.258.162.47.394.635.695.164.298.247.686.247 1.163V67h-1.244v-.895h-.052a1.817 1.817 0 0 1-.37.486c-.165.159-.377.291-.635.396a2.464 2.464 0 0 1-.929.158Zm.277-1.023c.352 0 .653-.07.903-.209.253-.139.445-.32.575-.545.134-.227.201-.47.201-.729v-.843a.671.671 0 0 1-.265.127 4.09 4.09 0 0 1-.438.098l-.482.073-.392.05a3.167 3.167 0 0 0-.678.159c-.201.073-.363.18-.485.32-.12.135-.179.317-.179.545 0 .315.116.554.349.715.233.16.53.24.891.24Zm5.221 3.332a2.664 2.664 0 0 1-.869-.14l.306-1.044c.233.062.441.09.623.08a.746.746 0 0 0 .481-.204c.142-.127.267-.336.375-.626l.158-.435-2.395-6.63h1.364l1.657 5.08h.068l1.658-5.08h1.368l-2.697 7.419c-.125.34-.285.629-.478.865a1.85 1.85 0 0 1-.69.537 2.26 2.26 0 0 1-.929.178Zm7.239-3.647-.064.464a7.56 7.56 0 0 1-.217 1.066c-.1.372-.203.717-.311 1.035a28.7 28.7 0 0 1-.26.759h-.904c.037-.177.088-.415.154-.716.065-.299.129-.632.191-1.002.063-.369.11-.745.141-1.129l.043-.477h1.227Zm8.129-7.534V67h-1.322v-7.406h-.051l-2.088 1.363v-1.261l2.178-1.423h1.283ZM131.891 67l3.81-7.534v-.064h-4.406v-1.13h5.77v1.168L133.268 67h-1.377Zm7.102-1.082a.828.828 0 0 1-.601-.248.823.823 0 0 1-.251-.605c0-.233.083-.431.251-.596a.82.82 0 0 1 .601-.252.82.82 0 0 1 .601.252.808.808 0 0 1 .251.596c0 .157-.04.3-.119.43a.883.883 0 0 1-.307.308.813.813 0 0 1-.426.115Zm0-4.373a.828.828 0 0 1-.601-.247.823.823 0 0 1-.251-.605c0-.233.083-.432.251-.596a.82.82 0 0 1 .601-.252.82.82 0 0 1 .601.252.808.808 0 0 1 .251.596c0 .156-.04.3-.119.43a.883.883 0 0 1-.307.307.813.813 0 0 1-.426.115Zm5.58 5.574c-.585 0-1.108-.1-1.568-.302a2.665 2.665 0 0 1-1.087-.84 2.23 2.23 0 0 1-.426-1.253h1.338c.017.259.104.483.26.674.159.187.367.332.622.434.256.103.54.154.853.154a2.2 2.2 0 0 0 .912-.18c.267-.118.475-.285.626-.498.151-.216.226-.464.226-.746 0-.292-.075-.55-.226-.77a1.472 1.472 0 0 0-.652-.53c-.284-.127-.628-.191-1.031-.191h-.737v-1.074h.737c.324 0 .608-.058.852-.175.247-.116.44-.278.58-.485.139-.21.208-.456.208-.738 0-.27-.061-.504-.183-.703a1.231 1.231 0 0 0-.511-.473 1.665 1.665 0 0 0-.776-.17c-.284 0-.55.052-.797.157-.244.103-.443.25-.596.444-.154.19-.236.419-.247.686h-1.275a2.16 2.16 0 0 1 .418-1.245 2.697 2.697 0 0 1 1.057-.839 3.437 3.437 0 0 1 1.457-.303c.56 0 1.043.11 1.449.328.409.216.725.505.946.866.225.36.335.755.333 1.184.002.489-.134.904-.41 1.245a1.98 1.98 0 0 1-1.09.686v.068c.579.088 1.028.318 1.346.69.321.372.48.834.477 1.385.003.48-.13.91-.4 1.291-.267.381-.632.68-1.095.9-.463.215-.993.323-1.59.323Zm4.696-.119v-.954l2.953-3.06c.316-.333.576-.624.78-.874.208-.253.362-.493.465-.72.102-.227.153-.469.153-.724 0-.29-.068-.54-.205-.75a1.332 1.332 0 0 0-.558-.49 1.774 1.774 0 0 0-.797-.175c-.312 0-.585.064-.818.192a1.313 1.313 0 0 0-.537.54 1.705 1.705 0 0 0-.187.819h-1.257c0-.531.122-.996.366-1.394.244-.397.58-.705 1.006-.924.426-.222.91-.333 1.453-.333.548 0 1.031.11 1.449.328.42.216.748.512.984.887.236.372.354.792.354 1.261 0 .324-.061.64-.183.95-.12.31-.328.655-.627 1.036a17.65 17.65 0 0 1-1.244 1.377l-1.734 1.815v.064h3.928V67h-5.744ZM322.623 58.09V47.183h.698V58.09h-.698Zm2.186-7.525a1.246 1.246 0 0 0-.563-.937c-.329-.225-.744-.337-1.244-.337-.358 0-.668.057-.929.17a1.43 1.43 0 0 0-.61.46 1.087 1.087 0 0 0-.213.661c0 .208.049.387.145.537.1.15.229.277.388.38.162.099.335.183.52.251.185.065.362.12.533.162l.852.221c.278.069.564.161.856.277.293.117.564.27.814.46.25.191.452.427.605.708.157.281.235.618.235 1.01 0 .494-.128.933-.384 1.317-.253.383-.62.686-1.103.907-.481.222-1.061.333-1.743.333-.654 0-1.219-.104-1.696-.311a2.609 2.609 0 0 1-1.121-.882c-.27-.384-.419-.838-.448-1.364h1.322c.025.315.127.578.306.788.182.208.414.363.695.465.284.1.595.15.933.15.372 0 .703-.06.993-.176.293-.119.523-.284.69-.494a1.17 1.17 0 0 0 .252-.746.914.914 0 0 0-.222-.635 1.638 1.638 0 0 0-.592-.409 5.778 5.778 0 0 0-.84-.285l-1.031-.282c-.699-.19-1.253-.47-1.662-.839-.406-.37-.609-.858-.609-1.466 0-.503.136-.942.409-1.317a2.687 2.687 0 0 1 1.108-.873 3.79 3.79 0 0 1 1.577-.316c.591 0 1.112.104 1.564.312.454.207.812.492 1.073.856.262.36.398.776.409 1.244h-1.269ZM327.652 57v-.955l2.953-3.06c.315-.332.575-.623.78-.873.207-.253.362-.493.464-.72.103-.227.154-.469.154-.724 0-.29-.068-.54-.205-.75a1.332 1.332 0 0 0-.558-.49 1.774 1.774 0 0 0-.797-.175c-.312 0-.585.064-.818.192a1.313 1.313 0 0 0-.537.54 1.705 1.705 0 0 0-.187.819h-1.258c0-.531.123-.996.367-1.394a2.482 2.482 0 0 1 1.006-.924c.426-.222.91-.333 1.453-.333.548 0 1.031.11 1.449.328.42.216.748.512.984.887.236.372.354.792.354 1.261 0 .324-.061.64-.184.95-.119.31-.328.655-.626 1.036a17.65 17.65 0 0 1-1.244 1.377l-1.735 1.815v.064h3.929V57h-5.744Zm8.216.081a.828.828 0 0 1-.601-.247.823.823 0 0 1-.251-.605c0-.233.083-.432.251-.597a.82.82 0 0 1 .601-.251.82.82 0 0 1 .601.251.808.808 0 0 1 .251.597c0 .156-.04.3-.119.43a.883.883 0 0 1-.307.307.813.813 0 0 1-.426.115Zm5.264.064c-.674-.003-1.249-.18-1.726-.533-.477-.352-.842-.865-1.095-1.538s-.38-1.484-.38-2.433c0-.946.127-1.755.38-2.425.255-.67.622-1.182 1.099-1.534.48-.352 1.054-.529 1.722-.529.667 0 1.24.178 1.717.533.477.352.842.864 1.095 1.534.256.668.384 1.475.384 2.42 0 .952-.127 1.765-.379 2.438-.253.67-.618 1.183-1.096 1.538-.477.353-1.051.529-1.721.529Zm0-1.138c.591 0 1.052-.288 1.385-.865.335-.577.503-1.41.503-2.501 0-.725-.077-1.337-.231-1.837-.15-.503-.367-.884-.652-1.142a1.425 1.425 0 0 0-1.005-.392c-.588 0-1.05.29-1.385.87-.335.579-.504 1.413-.507 2.5 0 .728.075 1.343.226 1.846.153.5.37.88.652 1.138.281.255.619.383 1.014.383Z" fill="#94A3B8"/></svg>