<svg width="357" height="74" fill="none" xmlns="http://www.w3.org/2000/svg"><rect width="357" height="74" rx="12" fill="#fff"/><rect x="16" y="16" width="40" height="40" rx="20" fill="#FDEDDC"/><path d="M32.954 30.535c.439 1.758-5.782 6.992-7.496 2.732-.994-2.469-1.862-7.644-.875-7.89.987-.246 7.933 3.398 8.371 5.158Z" fill="#F4900C"/><path d="M31.625 30.903c.64 1.026-1.22 3.041-2.245 3.682-1.025.64-1.933-.368-2.943-2.943-.441-1.126-1.11-4.18-.735-4.415.375-.234 5.283 2.651 5.923 3.676Z" fill="#A0041E"/><path d="M39.038 30.535c-.438 1.759 5.782 6.992 7.496 2.732.994-2.469 1.862-7.644.875-7.89-.987-.246-7.933 3.398-8.371 5.158Z" fill="#F4900C"/><path d="M40.367 30.903c-.64 1.026 1.22 3.041 2.246 3.682 1.024.64 1.932-.368 2.942-2.943.44-1.125 1.11-4.18.736-4.414-.376-.235-5.283 2.65-5.924 3.675Z" fill="#A0041E"/><path d="M45.565 41.941c0-.302-.125-.727-.271-1.124.39.018 1.012.127 1.846.544a2.666 2.666 0 0 0-.182-.928l.078.036c-.736-2.206-2.206-3.678-2.206-3.678h1.47c-1.554-3.108-3.31-5.343-5.383-6.372-.927-.582-2.459-.892-4.915-.893H36c-2.464 0-3.998.312-4.924.897-2.069 1.032-3.822 3.264-5.374 6.368h1.472s-1.472 1.471-2.208 3.678c.02-.01.037-.016.056-.026a1.79 1.79 0 0 0-.188.918c.842-.422 1.478-.528 1.876-.546-.126.342-.229.696-.258.984a2.098 2.098 0 0 0-.09.895c2.138-.971 3.138-.833 4.305-.25.809 2.416 2.804 4.223 5.334 4.223 2.529 0 4.497-1.863 5.305-4.278.972-.833 2.472-.583 4.278.278a1.895 1.895 0 0 0-.024-.729l.005.003Z" fill="#F18F26"/><path d="M44.83 39.734c.004 0 .738.002 2.206.735-.833-1.892-5.017-2.713-6.621-2.194-.78 1.303-.854 3.336-2.255 4.415-1.161.954-3.142.972-4.32 0-1.563-1.283-1.706-3.875-2.255-4.415-1.604-.52-5.787.303-6.62 2.194 1.467-.734 2.203-.735 2.206-.735 0 0-.735 1.472-.735 2.207 1.599-1.048 3.41-1.514 4.953-.301 1.11 5.28 8.195 5.03 9.222 0 1.543-1.212 3.353-.748 4.953.301.002-.735-.734-2.207-.734-2.207Z" fill="#FFD983"/><path d="M31.334 35.333s0-1 1-1 1 1 1 1v1s0 1-1 1-1-1-1-1v-1Zm7.333 0s0-1 1-1 1 1 1 1v1s0 1-1 1-1-1-1-1v-1ZM33.96 42.54c-.68.138 1.36 2.645 2.041 2.645.68 0 2.722-2.507 2.042-2.645-.681-.139-3.402-.139-4.083 0Z" fill="#272B2B"/><path d="M70.13 49.114V53h-1.273v-8.727h1.257v3.247h.08c.154-.352.388-.632.704-.84.315-.207.727-.31 1.236-.31.448 0 .84.092 1.176.276.338.185.6.46.784.827.187.364.281.818.281 1.364V53h-1.274v-4.01c0-.48-.124-.852-.37-1.116-.248-.268-.592-.401-1.032-.401-.301 0-.571.064-.81.192a1.382 1.382 0 0 0-.558.562c-.134.245-.2.54-.2.887Zm8.766 4.018c-.645 0-1.2-.138-1.666-.413a2.805 2.805 0 0 1-1.074-1.172c-.25-.506-.375-1.098-.375-1.777 0-.67.125-1.262.375-1.773.253-.511.605-.91 1.057-1.197.455-.287.986-.43 1.594-.43.37 0 .727.06 1.074.183a2.6 2.6 0 0 1 .933.575c.276.261.493.6.652 1.018.159.415.239.92.239 1.513v.452H76.5v-.955h3.955a1.88 1.88 0 0 0-.205-.89 1.547 1.547 0 0 0-.575-.618 1.608 1.608 0 0 0-.86-.226c-.359 0-.671.088-.938.264-.264.173-.469.4-.614.682a1.969 1.969 0 0 0-.213.908v.745c0 .438.077.81.23 1.117.156.307.374.541.652.703.279.159.604.239.976.239.242 0 .462-.035.66-.103a1.37 1.37 0 0 0 .848-.831l1.207.218c-.097.355-.27.666-.52.933a2.52 2.52 0 0 1-.933.618 3.493 3.493 0 0 1-1.275.217Zm6.033-3.95.081-1.799-1.517.976-.464-.81 1.61-.822-1.61-.822.464-.81 1.517.976-.08-1.798h.924l-.08 1.798 1.516-.976.465.81-1.611.822 1.61.823-.464.81-1.517-.977.081 1.799h-.925Zm6.258 0 .081-1.799-1.517.976-.464-.81 1.61-.822-1.61-.822.464-.81 1.517.976-.08-1.798h.924l-.081 1.798 1.517-.976.464.81-1.61.822 1.61.823-.464.81-1.517-.977.08 1.799h-.924Zm7.204 3.95c-.614 0-1.15-.14-1.607-.422a2.845 2.845 0 0 1-1.065-1.18c-.253-.506-.38-1.097-.38-1.773 0-.679.127-1.273.38-1.781a2.839 2.839 0 0 1 1.065-1.185c.458-.281.993-.422 1.607-.422s1.15.14 1.606.422a2.84 2.84 0 0 1 1.066 1.185c.253.508.379 1.102.379 1.781 0 .676-.126 1.267-.379 1.773-.253.505-.608.899-1.066 1.18-.457.282-.992.422-1.606.422Zm.004-1.07c.398 0 .728-.105.989-.315.261-.21.454-.49.58-.84.127-.349.191-.734.191-1.154 0-.418-.064-.801-.192-1.15a1.874 1.874 0 0 0-.58-.849c-.26-.213-.59-.32-.988-.32-.4 0-.733.107-.997.32a1.903 1.903 0 0 0-.584.848c-.125.35-.187.733-.187 1.15 0 .421.062.806.187 1.156.128.35.323.629.584.84.264.21.597.315.997.315Zm9.724 3.312c-.881 0-1.662-.121-2.344-.363a4.487 4.487 0 0 1-1.717-1.056 4.516 4.516 0 0 1-1.062-1.705c-.241-.673-.362-1.442-.362-2.305 0-.841.122-1.597.367-2.267a4.674 4.674 0 0 1 1.065-1.713 4.646 4.646 0 0 1 1.709-1.087c.67-.25 1.432-.375 2.284-.375.815 0 1.534.128 2.156.383a4.438 4.438 0 0 1 2.531 2.587c.216.577.324 1.186.324 1.828 0 .449-.028.888-.085 1.317a4.254 4.254 0 0 1-.315 1.159c-.151.344-.37.62-.657.827-.284.204-.653.31-1.107.32a2.25 2.25 0 0 1-.704-.086 1.434 1.434 0 0 1-.579-.315.932.932 0 0 1-.29-.563h-.051a1.302 1.302 0 0 1-.341.469 1.767 1.767 0 0 1-.609.34 2.348 2.348 0 0 1-.853.103 2.284 2.284 0 0 1-.967-.243 2.21 2.21 0 0 1-.737-.613 2.846 2.846 0 0 1-.465-.93 4.12 4.12 0 0 1-.162-1.192c0-.421.062-.797.184-1.13.122-.335.288-.623.498-.865.213-.244.458-.437.733-.58.276-.141.567-.23.874-.268.298-.034.572-.025.822.026.25.05.458.129.622.234.168.105.273.22.316.345h.055v-.477h1.048v3.954c0 .225.059.415.175.572a.6.6 0 0 0 .507.234c.259 0 .46-.095.605-.286.148-.19.252-.483.311-.877.063-.395.094-.901.094-1.518 0-.431-.058-.838-.175-1.218a3.377 3.377 0 0 0-.507-1.04 3.278 3.278 0 0 0-.818-.805 3.829 3.829 0 0 0-1.108-.52 4.803 4.803 0 0 0-1.368-.183c-.679 0-1.282.105-1.811.315a3.584 3.584 0 0 0-1.338.899 3.92 3.92 0 0 0-.822 1.41c-.185.546-.277 1.158-.277 1.837 0 .707.095 1.335.285 1.884a3.63 3.63 0 0 0 .844 1.38c.372.375.832.66 1.381.853.548.196 1.18.294 1.896.294.318 0 .631-.029.938-.086.306-.054.579-.116.818-.187a9.15 9.15 0 0 0 .541-.166l.298.933c-.176.082-.41.163-.703.243-.29.08-.605.145-.946.196a6.693 6.693 0 0 1-1.001.077Zm-.392-3.546c.369 0 .666-.074.89-.222.227-.147.391-.367.49-.66.103-.295.154-.665.154-1.108-.003-.432-.059-.776-.167-1.031a1.012 1.012 0 0 0-.494-.554c-.221-.114-.507-.17-.856-.17-.321 0-.596.078-.823.234a1.5 1.5 0 0 0-.515.635 2.23 2.23 0 0 0-.179.89c.002.344.051.668.144.972.097.301.253.545.469.733.219.187.514.281.887.281Zm9.806-5.373v1.022h-3.575v-1.022h3.575Zm-2.616-1.569h1.274v6.192c0 .247.037.433.11.558.074.122.17.206.286.252.119.042.249.064.388.064.102 0 .192-.007.268-.022.077-.014.137-.025.179-.034l.23 1.053a2.494 2.494 0 0 1-.826.136 2.244 2.244 0 0 1-.938-.179 1.606 1.606 0 0 1-.703-.58c-.179-.26-.268-.589-.268-.984v-6.456Zm6.712 8.246c-.613 0-1.149-.14-1.606-.422a2.843 2.843 0 0 1-1.066-1.18c-.252-.506-.379-1.097-.379-1.773 0-.679.127-1.273.379-1.781a2.837 2.837 0 0 1 1.066-1.185c.457-.281.993-.422 1.606-.422.614 0 1.149.14 1.607.422.457.281.812.676 1.065 1.185.253.508.379 1.102.379 1.781 0 .676-.126 1.267-.379 1.773-.253.505-.608.899-1.065 1.18-.458.282-.993.422-1.607.422Zm.005-1.07c.397 0 .727-.105.988-.315.262-.21.455-.49.58-.84.128-.349.191-.734.191-1.154 0-.418-.063-.801-.191-1.15a1.87 1.87 0 0 0-.58-.849c-.261-.213-.591-.32-.988-.32-.401 0-.733.107-.998.32a1.898 1.898 0 0 0-.583.848c-.125.35-.188.733-.188 1.15 0 .421.063.806.188 1.156.127.35.322.629.583.84.265.21.597.315.998.315Zm6.28-2.88.081-1.799-1.517.976-.465-.81 1.611-.822-1.611-.822.465-.81 1.517.976-.081-1.798h.924l-.081 1.798 1.518-.976.464.81-1.611.822 1.611.823-.464.81-1.518-.977.081 1.799h-.924Zm6.258 0 .08-1.799-1.517.976-.464-.81 1.611-.822-1.611-.822.464-.81 1.517.976-.08-1.798h.924l-.081 1.798 1.517-.976.465.81-1.611.822 1.611.823-.465.81-1.517-.977.081 1.799h-.924Zm6.257 0 .081-1.799-1.517.976-.464-.81 1.611-.822-1.611-.822.464-.81 1.517.976-.081-1.798h.925l-.081 1.798 1.517-.976.465.81-1.611.822 1.611.823-.465.81-1.517-.977.081 1.799h-.925Zm6.258 0 .081-1.799-1.517.976-.464-.81 1.61-.822-1.61-.822.464-.81 1.517.976-.081-1.798h.925l-.081 1.798 1.517-.976.464.81-1.61.822 1.61.823-.464.81-1.517-.977.081 1.799h-.925Zm6.258 0 .081-1.799-1.517.976-.465-.81 1.611-.822-1.611-.822.465-.81 1.517.976-.081-1.798h.925l-.081 1.798 1.517-.976.464.81-1.611.822 1.611.823-.464.81-1.517-.977.081 1.799h-.925Zm7.562-2.727v1.022h-3.699v-1.022h3.699ZM157.822 53v-7.304c0-.41.09-.749.269-1.018.179-.273.416-.476.711-.61.296-.136.617-.204.963-.204.256 0 .475.02.657.064.181.04.316.076.404.11l-.298 1.032a6.353 6.353 0 0 0-.23-.06 1.314 1.314 0 0 0-.341-.038c-.31 0-.531.076-.665.23-.13.153-.196.375-.196.665V53h-1.274Zm4.159.081a.828.828 0 0 1-.601-.247.827.827 0 0 1-.251-.605c0-.233.084-.432.251-.597a.82.82 0 0 1 .601-.251.82.82 0 0 1 .601.251.804.804 0 0 1 .251.597c0 .156-.039.3-.119.43a.883.883 0 0 1-.307.307.813.813 0 0 1-.426.115Zm5.316.051c-.633 0-1.179-.143-1.636-.43a2.844 2.844 0 0 1-1.048-1.198c-.245-.508-.367-1.09-.367-1.747 0-.665.125-1.251.375-1.76a2.87 2.87 0 0 1 1.057-1.197c.454-.287.99-.43 1.606-.43.498 0 .941.092 1.33.276.389.182.703.438.942.767.241.33.385.715.43 1.155h-1.24a1.481 1.481 0 0 0-.469-.792c-.241-.222-.565-.333-.971-.333-.355 0-.666.094-.933.281a1.798 1.798 0 0 0-.618.793c-.148.341-.222.744-.222 1.21 0 .478.072.89.217 1.236.145.347.35.615.614.806.267.19.581.285.942.285.241 0 .46-.044.656-.132.199-.091.365-.22.499-.388.136-.167.231-.37.285-.605h1.24a2.405 2.405 0 0 1-.413 1.133c-.23.333-.539.594-.925.785-.383.19-.834.285-1.351.285Zm6.809 0c-.614 0-1.149-.14-1.607-.422a2.847 2.847 0 0 1-1.065-1.18c-.253-.506-.379-1.097-.379-1.773 0-.679.126-1.273.379-1.781a2.841 2.841 0 0 1 1.065-1.185c.458-.281.993-.422 1.607-.422.613 0 1.149.14 1.606.422.458.281.813.676 1.066 1.185.253.508.379 1.102.379 1.781 0 .676-.126 1.267-.379 1.773-.253.505-.608.899-1.066 1.18-.457.282-.993.422-1.606.422Zm.004-1.07c.398 0 .727-.105.989-.315.261-.21.454-.49.579-.84.128-.349.192-.734.192-1.154 0-.418-.064-.801-.192-1.15a1.876 1.876 0 0 0-.579-.849c-.262-.213-.591-.32-.989-.32-.4 0-.733.107-.997.32a1.908 1.908 0 0 0-.584.848c-.125.35-.187.733-.187 1.15 0 .421.062.806.187 1.156.128.35.323.629.584.84.264.21.597.315.997.315Zm4.469.938v-6.545h1.223v1.065h.081c.137-.36.36-.642.669-.844.31-.204.681-.307 1.112-.307.438 0 .804.103 1.1.307a1.8 1.8 0 0 1 .66.844h.069c.156-.35.404-.628.745-.835.341-.21.747-.316 1.219-.316.594 0 1.078.186 1.453.559.378.372.567.933.567 1.683V53h-1.274v-4.27c0-.443-.121-.764-.362-.963a1.32 1.32 0 0 0-.866-.298c-.414 0-.737.128-.967.383-.23.253-.345.578-.345.976V53h-1.27v-4.35c0-.356-.111-.642-.332-.857-.222-.216-.51-.324-.865-.324-.242 0-.465.064-.669.191-.202.126-.365.3-.49.525a1.596 1.596 0 0 0-.184.78V53h-1.274Z" fill="#94A3B8"/><path d="M70.642 34h-2.25l4.097-11.636h2.602L79.193 34h-2.25l-3.108-9.25h-.09L70.641 34Zm.074-4.563h6.136v1.694h-6.136v-1.694Zm11.976-.55V34h-2.057v-8.727H82.6v1.483h.102c.2-.489.521-.877.96-1.165.444-.288.99-.432 1.642-.432.603 0 1.127.129 1.574.387.451.257.8.63 1.046 1.119.25.488.373 1.081.369 1.778V34h-2.057v-5.239c0-.583-.151-1.04-.454-1.369-.3-.33-.714-.494-1.245-.494-.36 0-.68.08-.96.238-.276.156-.494.381-.653.677-.156.295-.233.653-.233 1.073Zm11.5 5.283c-.852 0-1.591-.187-2.216-.562a3.82 3.82 0 0 1-1.455-1.574c-.34-.674-.511-1.462-.511-2.363 0-.902.17-1.692.511-2.37a3.812 3.812 0 0 1 1.455-1.58c.625-.374 1.364-.562 2.216-.562.852 0 1.59.188 2.216.563a3.774 3.774 0 0 1 1.448 1.58c.345.677.518 1.467.518 2.369 0 .901-.173 1.689-.517 2.363a3.782 3.782 0 0 1-1.45 1.574c-.624.375-1.363.563-2.215.563Zm.011-1.647c.462 0 .849-.127 1.16-.381.31-.258.54-.602.692-1.034.156-.432.233-.913.233-1.443 0-.534-.077-1.017-.233-1.45-.151-.435-.382-.781-.693-1.039-.31-.257-.697-.386-1.159-.386-.473 0-.867.129-1.182.386-.31.258-.543.604-.699 1.04a4.356 4.356 0 0 0-.227 1.449c0 .53.076 1.011.227 1.443.156.432.389.776.7 1.034.314.254.708.38 1.181.38Zm7.973-3.637V34h-2.057v-8.727h1.966v1.483h.103c.2-.489.52-.877.96-1.165.443-.288.99-.432 1.642-.432.602 0 1.127.129 1.574.387.45.257.799.63 1.045 1.119.25.488.373 1.081.369 1.778V34h-2.056v-5.239c0-.583-.152-1.04-.455-1.369-.299-.33-.714-.494-1.244-.494-.36 0-.68.08-.961.238-.276.156-.494.381-.653.677-.155.295-.233.653-.233 1.073Zm8.659 8.387c-.28 0-.54-.023-.778-.069a2.88 2.88 0 0 1-.563-.147l.478-1.602c.299.087.566.128.801.125a.981.981 0 0 0 .619-.222c.182-.14.335-.375.46-.705l.176-.471-3.164-8.91h2.181l2.012 6.592h.091l2.017-6.591h2.187l-3.494 9.784a3.92 3.92 0 0 1-.648 1.187 2.632 2.632 0 0 1-.988.762c-.387.178-.849.267-1.387.267ZM118.776 34v-8.727h1.965v1.483h.103c.182-.5.483-.89.903-1.17.421-.285.923-.427 1.506-.427.591 0 1.089.144 1.494.432.409.284.697.672.864 1.165h.091c.193-.485.519-.872.977-1.16.462-.291 1.009-.437 1.642-.437.803 0 1.458.254 1.966.762.508.507.761 1.248.761 2.221V34h-2.062v-5.54c0-.541-.144-.937-.432-1.187a1.542 1.542 0 0 0-1.057-.381c-.496 0-.884.155-1.165.466-.276.307-.414.706-.414 1.199V34h-2.017v-5.625c0-.45-.137-.81-.41-1.08-.268-.269-.621-.403-1.056-.403a1.49 1.49 0 0 0-.807.227 1.583 1.583 0 0 0-.58.631 1.969 1.969 0 0 0-.216.943V34h-2.056Zm18.166.17c-.853 0-1.591-.187-2.216-.562a3.823 3.823 0 0 1-1.455-1.574c-.341-.674-.511-1.462-.511-2.363 0-.902.17-1.692.511-2.37a3.815 3.815 0 0 1 1.455-1.58c.625-.374 1.363-.562 2.216-.562.852 0 1.591.188 2.216.563a3.775 3.775 0 0 1 1.449 1.58c.344.677.517 1.467.517 2.369 0 .901-.173 1.689-.517 2.363a3.783 3.783 0 0 1-1.449 1.574c-.625.375-1.364.563-2.216.563Zm.011-1.647c.462 0 .849-.127 1.159-.381.311-.258.542-.602.693-1.034.156-.432.233-.913.233-1.443 0-.534-.077-1.017-.233-1.45-.151-.435-.382-.781-.693-1.039-.31-.257-.697-.386-1.159-.386-.473 0-.867.129-1.182.386-.31.258-.543.604-.699 1.04a4.369 4.369 0 0 0-.227 1.449c0 .53.076 1.011.227 1.443.156.432.389.776.699 1.034.315.254.709.38 1.182.38Zm11.479-2.194v-5.056h2.057V34h-1.995v-1.551h-.091c-.197.489-.52.888-.971 1.199-.447.31-.998.466-1.654.466-.572 0-1.077-.127-1.517-.381a2.647 2.647 0 0 1-1.022-1.12c-.247-.492-.37-1.087-.37-1.784v-5.556h2.057v5.238c0 .553.152.993.455 1.319.303.325.7.488 1.193.488.303 0 .596-.074.881-.221.284-.148.517-.368.698-.66.186-.295.279-.664.279-1.108Zm11.069-2.75-1.875.205a1.498 1.498 0 0 0-.278-.534 1.383 1.383 0 0 0-.523-.403c-.219-.103-.488-.154-.807-.154-.428 0-.787.093-1.079.279-.288.185-.43.426-.426.721a.755.755 0 0 0 .278.62c.193.159.512.29.955.392l1.488.318c.826.178 1.44.46 1.841.846.406.387.61.892.614 1.517a2.376 2.376 0 0 1-.483 1.455c-.314.417-.752.742-1.313.977-.56.235-1.204.352-1.931.352-1.069 0-1.928-.223-2.58-.67-.651-.45-1.04-1.078-1.165-1.88l2.006-.194c.091.394.284.691.58.892.295.2.679.301 1.153.301.489 0 .881-.1 1.176-.3.299-.202.449-.45.449-.745a.776.776 0 0 0-.29-.62c-.189-.162-.485-.287-.886-.375l-1.489-.312c-.837-.174-1.456-.468-1.858-.88-.401-.417-.6-.944-.596-1.58-.004-.538.142-1.004.437-1.398.299-.398.714-.704 1.244-.92.535-.22 1.15-.33 1.847-.33 1.023 0 1.828.218 2.415.654.591.435.956 1.024 1.096 1.767ZM165.445 34V22.364h7.454v1.767h-5.346v3.159h4.835v1.767h-4.835V34h-2.108Zm12.45.17c-.852 0-1.591-.187-2.216-.562a3.823 3.823 0 0 1-1.455-1.574c-.34-.674-.511-1.462-.511-2.363 0-.902.171-1.692.511-2.37a3.815 3.815 0 0 1 1.455-1.58c.625-.374 1.364-.562 2.216-.562.852 0 1.591.188 2.216.563a3.775 3.775 0 0 1 1.449 1.58c.344.677.517 1.467.517 2.369 0 .901-.173 1.689-.517 2.363a3.783 3.783 0 0 1-1.449 1.574c-.625.375-1.364.563-2.216.563Zm.011-1.647c.462 0 .849-.127 1.159-.381.311-.258.542-.602.694-1.034.155-.432.232-.913.232-1.443 0-.534-.077-1.017-.232-1.45-.152-.435-.383-.781-.694-1.039-.31-.257-.697-.386-1.159-.386-.473 0-.867.129-1.182.386-.31.258-.543.604-.698 1.04a4.343 4.343 0 0 0-.228 1.449c0 .53.076 1.011.228 1.443.155.432.388.776.698 1.034.315.254.709.38 1.182.38Zm7.27-7.25 1.762 3.221 1.789-3.221h2.176l-2.63 4.363L190.949 34h-2.165l-1.846-3.142-1.83 3.142h-2.182l2.659-4.364-2.591-4.363h2.182Z" fill="#0F172A"/><path fill-rule="evenodd" clip-rule="evenodd" d="M331.416 28.667c.575 0 1.095.232 1.472.608l.043.045c.333.352.544.821.566 1.34l.001.017.001.073v.012a.084.084 0 0 0 .144.06l.008-.01.053-.05.013-.012a2.076 2.076 0 0 1 1.409-.547c.533 0 1.065.204 1.471.61l.59.59c.406.405.609.938.61 1.47l-.001.062a2.075 2.075 0 0 1-.547 1.348l-.012.013a1.76 1.76 0 0 1-.05.052l-.009.009a.084.084 0 0 0 .059.143h.012l.074.001h.017c.518.023.987.235 1.34.568l.044.043c.376.377.609.897.609 1.471v.834c0 .574-.233 1.094-.609 1.471-.015.015-.029.03-.044.043a2.078 2.078 0 0 1-1.34.567h-.017a2.03 2.03 0 0 1-.074.002h-.012a.084.084 0 0 0-.059.143l.009.009.05.052.012.013c.351.382.533.863.547 1.348l.001.062a2.08 2.08 0 0 1-.61 1.47l-.59.59a2.076 2.076 0 0 1-1.533.61 2.075 2.075 0 0 1-1.347-.547l-.013-.012a1.503 1.503 0 0 1-.053-.05l-.008-.01a.084.084 0 0 0-.144.06v.012l-.001.073-.001.018a2.075 2.075 0 0 1-.566 1.34l-.043.044a2.077 2.077 0 0 1-1.472.608h-.833a2.077 2.077 0 0 1-1.472-.608l-.043-.045a2.076 2.076 0 0 1-.567-1.34v-.017a1.783 1.783 0 0 1-.002-.073v-.012a.083.083 0 0 0-.052-.077.083.083 0 0 0-.091.018l-.008.008-.053.051-.013.012a2.076 2.076 0 0 1-1.41.547 2.08 2.08 0 0 1-1.471-.61l-.589-.59a2.08 2.08 0 0 1-.61-1.47l.001-.062a2.08 2.08 0 0 1 .546-1.348l.012-.013.051-.052.009-.009a.084.084 0 0 0 .018-.091.085.085 0 0 0-.078-.052h-.012l-.073-.001h-.017a2.078 2.078 0 0 1-1.384-.61 2.077 2.077 0 0 1-.609-1.472v-.834a2.077 2.077 0 0 1 .653-1.514 2.078 2.078 0 0 1 1.34-.567h.017c.024-.002.049-.002.073-.002h.012c.034 0 .065-.02.078-.052a.084.084 0 0 0-.018-.091l-.009-.009a6.464 6.464 0 0 1-.051-.052l-.012-.013a2.08 2.08 0 0 1-.546-1.348l-.001-.062a2.08 2.08 0 0 1 .61-1.47l.589-.59a2.08 2.08 0 0 1 2.881-.063l.013.012.053.05.008.01c.024.023.06.03.091.017a.083.083 0 0 0 .052-.077v-.012l.002-.073v-.018c.022-.518.234-.987.567-1.34l.043-.044a2.077 2.077 0 0 1 1.472-.608h.833Zm-1.25 14.583c0 .23.187.417.417.417h.833c.23 0 .417-.187.417-.417v-.012A1.75 1.75 0 0 1 334.821 42l.009.009a.416.416 0 0 0 .589 0l.589-.59a.416.416 0 0 0 0-.589l-.008-.008a1.749 1.749 0 0 1 1.237-2.989h.012c.23 0 .417-.186.417-.416v-.834a.417.417 0 0 0-.417-.416h-.012a1.749 1.749 0 0 1-1.616-1.08 1.748 1.748 0 0 1 .379-1.909l.008-.008a.416.416 0 0 0 0-.59l-.589-.589a.416.416 0 0 0-.589 0l-.009.009a1.75 1.75 0 0 1-2.988-1.238v-.012a.417.417 0 0 0-.417-.417h-.833a.417.417 0 0 0-.417.417v.012A1.75 1.75 0 0 1 327.178 32l-.009-.009a.416.416 0 0 0-.589 0l-.589.59a.416.416 0 0 0 0 .589l.008.008a1.751 1.751 0 0 1-1.238 2.989h-.012a.416.416 0 0 0-.416.416v.834c0 .23.186.416.416.416h.012a1.75 1.75 0 0 1 1.238 2.989l-.008.008a.416.416 0 0 0 0 .59l.589.589a.416.416 0 0 0 .589 0l.009-.009a1.75 1.75 0 0 1 2.988 1.238v.012Z" fill="#64748B"/><path fill-rule="evenodd" clip-rule="evenodd" d="M330.999 38.667a1.667 1.667 0 1 0 0-3.334 1.667 1.667 0 0 0 0 3.334Zm0 1.666a3.334 3.334 0 1 0 0-6.667 3.334 3.334 0 0 0 0 6.667Z" fill="#64748B"/></svg>